<?xml version="1.0" encoding="UTF-8" standalone="no"?>
<!DOCTYPE svg PUBLIC "-//W3C//DTD SVG 1.1//EN"
 "http://www.w3.org/Graphics/SVG/1.1/DTD/svg11.dtd">
<!-- Generated by graphviz version 2.38.0 (20140413.2041)
 -->
<!-- Title: g Pages: 1 -->
<svg width="278pt" height="116pt"
 viewBox="0.00 0.00 278.00 116.00" xmlns="http://www.w3.org/2000/svg" xmlns:xlink="http://www.w3.org/1999/xlink">
<g id="graph0" class="graph" transform="scale(1 1) rotate(0) translate(4 112)">
<title>g</title>
<polygon fill="white" stroke="none" points="-4,4 -4,-112 274,-112 274,4 -4,4"/>
<!-- a -->
<g id="node1" class="node"><title>a</title>
<ellipse fill="none" stroke="black" cx="27" cy="-90" rx="27" ry="18"/>
<text text-anchor="middle" x="27" y="-86.3" font-family="Times New Roman,serif" font-size="14.00">a</text>
</g>
<!-- b -->
<g id="node2" class="node"><title>b</title>
<ellipse fill="none" stroke="black" cx="27" cy="-18" rx="27" ry="18"/>
<text text-anchor="middle" x="27" y="-14.3" font-family="Times New Roman,serif" font-size="14.00">b</text>
</g>
<!-- a&#45;&gt;b -->
<g id="edge1" class="edge"><title>a&#45;&gt;b</title>
<path fill="none" stroke="black" d="M27,-71.6966C27,-63.9827 27,-54.7125 27,-46.1124"/>
<polygon fill="black" stroke="black" points="30.5001,-46.1043 27,-36.1043 23.5001,-46.1044 30.5001,-46.1043"/>
</g>
<!-- c -->
<g id="node3" class="node"><title>c</title>
<ellipse fill="none" stroke="black" cx="99" cy="-90" rx="27" ry="18"/>
<text text-anchor="middle" x="99" y="-86.3" font-family="Times New Roman,serif" font-size="14.00">c</text>
</g>
<!-- d -->
<g id="node4" class="node"><title>d</title>
<ellipse fill="none" stroke="black" cx="99" cy="-18" rx="27" ry="18"/>
<text text-anchor="middle" x="99" y="-14.3" font-family="Times New Roman,serif" font-size="14.00">d</text>
</g>
<!-- c&#45;&gt;d -->
<g id="edge2" class="edge"><title>c&#45;&gt;d</title>
<path fill="none" stroke="black" d="M99,-61.6651C99,-53.0537 99,-43.7913 99,-36.1043"/>
<polygon fill="black" stroke="black" points="95.5001,-61.6966 99,-71.6966 102.5,-61.6967 95.5001,-61.6966"/>
</g>
<!-- e -->
<g id="node5" class="node"><title>e</title>
<ellipse fill="none" stroke="black" cx="171" cy="-90" rx="27" ry="18"/>
<text text-anchor="middle" x="171" y="-86.3" font-family="Times New Roman,serif" font-size="14.00">e</text>
</g>
<!-- f -->
<g id="node6" class="node"><title>f</title>
<ellipse fill="none" stroke="black" cx="171" cy="-18" rx="27" ry="18"/>
<text text-anchor="middle" x="171" y="-14.3" font-family="Times New Roman,serif" font-size="14.00">f</text>
</g>
<!-- e&#45;&gt;f -->
<g id="edge3" class="edge"><title>e&#45;&gt;f</title>
<path fill="none" stroke="black" d="M171,-61.6651C171,-56.6867 171,-51.4906 171,-46.5072"/>
<polygon fill="black" stroke="black" points="167.5,-61.6966 171,-71.6966 174.5,-61.6967 167.5,-61.6966"/>
<polygon fill="black" stroke="black" points="174.5,-46.1043 171,-36.1043 167.5,-46.1044 174.5,-46.1043"/>
</g>
<!-- g -->
<g id="node7" class="node"><title>g</title>
<ellipse fill="none" stroke="black" cx="243" cy="-90" rx="27" ry="18"/>
<text text-anchor="middle" x="243" y="-86.3" font-family="Times New Roman,serif" font-size="14.00">g</text>
</g>
<!-- h -->
<g id="node8" class="node"><title>h</title>
<ellipse fill="none" stroke="black" cx="243" cy="-18" rx="27" ry="18"/>
<text text-anchor="middle" x="243" y="-14.3" font-family="Times New Roman,serif" font-size="14.00">h</text>
</g>
<!-- g&#45;&gt;h -->
<g id="edge4" class="edge"><title>g&#45;&gt;h</title>
<path fill="none" stroke="black" d="M243,-71.6966C243,-60.8463 243,-46.9167 243,-36.1043"/>
</g>
</g>
</svg>
