<?xml version="1.0" encoding="UTF-8" standalone="no"?>
<!DOCTYPE svg PUBLIC "-//W3C//DTD SVG 1.1//EN"
 "http://www.w3.org/Graphics/SVG/1.1/DTD/svg11.dtd">
<!-- Generated by graphviz version 2.38.0 (20140413.2041)
 -->
<!-- Title: g Pages: 1 -->
<svg width="152pt" height="44pt"
 viewBox="0.00 0.00 152.00 44.00" xmlns="http://www.w3.org/2000/svg" xmlns:xlink="http://www.w3.org/1999/xlink">
<g id="graph0" class="graph" transform="scale(1 1) rotate(0) translate(4 40)">
<title>g</title>
<polygon fill="white" stroke="none" points="-4,4 -4,-40 148,-40 148,4 -4,4"/>
<!-- a -->
<g id="node1" class="node"><title>a</title>
<ellipse fill="none" stroke="black" cx="27" cy="-18" rx="27" ry="18"/>
<text text-anchor="middle" x="27" y="-14.3" font-family="Times New Roman,serif" font-size="14.00">a</text>
</g>
<!-- b -->
<g id="node2" class="node"><title>b</title>
<ellipse fill="none" stroke="black" cx="117" cy="-18" rx="27" ry="18"/>
<text text-anchor="middle" x="117" y="-14.3" font-family="Times New Roman,serif" font-size="14.00">b</text>
</g>
<!-- a&#45;&gt;b -->
<g id="edge1" class="edge"><title>a&#45;&gt;b</title>
<path fill="none" stroke="black" d="M54.4029,-18C54.4907,-18 54.5786,-18 54.6667,-18"/>
<polygon fill="black" stroke="black" points="89.919,-18 89.919,-22 81.919,-22 81.919,-18 89.919,-18"/>
<polyline fill="none" stroke="black" points="81.919,-18 79.919,-18 "/>
<polygon fill="none" stroke="black" points="67.919,-18.0001 73.919,-14 79.919,-18 67.919,-18.0001"/>
<polyline fill="none" stroke="black" points="67.919,-18.0001 62.919,-18.0001 "/>
<polygon fill="black" stroke="black" points="62.919,-18.0001 52.919,-22.5001 57.919,-18.0001 52.919,-18.0001 52.919,-18.0001 52.919,-18.0001 57.919,-18.0001 52.919,-13.5001 62.919,-18.0001 62.919,-18.0001"/>
</g>
</g>
</svg>
