<?xml version="1.0" encoding="UTF-8" standalone="no"?>
<!DOCTYPE svg PUBLIC "-//W3C//DTD SVG 1.1//EN"
 "http://www.w3.org/Graphics/SVG/1.1/DTD/svg11.dtd">
<!-- Generated by graphviz version 2.38.0 (20140413.2041)
 -->
<!-- Title: structs Pages: 1 -->
<svg width="171pt" height="228pt"
 viewBox="0.00 0.00 171.00 227.50" xmlns="http://www.w3.org/2000/svg" xmlns:xlink="http://www.w3.org/1999/xlink">
<g id="graph0" class="graph" transform="scale(1 1) rotate(0) translate(4 223.5)">
<title>structs</title>
<polygon fill="white" stroke="none" points="-4,4 -4,-223.5 167,-223.5 167,4 -4,4"/>
<!-- struct1 -->
<g id="node1" class="node"><title>struct1</title>
<polygon fill="none" stroke="black" points="0,-121.5 0,-190.5 58,-190.5 58,-121.5 0,-121.5"/>
<text text-anchor="middle" x="29" y="-175.3" font-family="Times New Roman,serif" font-size="14.00">left</text>
<polyline fill="none" stroke="black" points="0,-167.5 58,-167.5 "/>
<text text-anchor="middle" x="29" y="-152.3" font-family="Times New Roman,serif" font-size="14.00">mid dle</text>
<polyline fill="none" stroke="black" points="0,-144.5 58,-144.5 "/>
<text text-anchor="middle" x="29" y="-129.3" font-family="Times New Roman,serif" font-size="14.00">rig ht</text>
</g>
<!-- struct2 -->
<g id="node2" class="node"><title>struct2</title>
<polygon fill="none" stroke="black" points="101.5,-173 101.5,-219 155.5,-219 155.5,-173 101.5,-173"/>
<text text-anchor="middle" x="128.5" y="-203.8" font-family="Times New Roman,serif" font-size="14.00">one</text>
<polyline fill="none" stroke="black" points="101.5,-196 155.5,-196 "/>
<text text-anchor="middle" x="128.5" y="-180.8" font-family="Times New Roman,serif" font-size="14.00">two</text>
</g>
<!-- struct1&#45;&gt;struct2 -->
<g id="edge1" class="edge"><title>struct1:f1&#45;&gt;struct2:f0</title>
<path fill="none" stroke="black" d="M58,-156C83.6508,-156 74.558,-194.403 90.4371,-205.204"/>
<polygon fill="black" stroke="black" points="89.928,-208.695 100.5,-208 91.8019,-201.951 89.928,-208.695"/>
</g>
<!-- struct3 -->
<g id="node3" class="node"><title>struct3</title>
<polygon fill="none" stroke="black" points="94,-0.5 94,-153.5 163,-153.5 163,-0.5 94,-0.5"/>
<text text-anchor="middle" x="128.5" y="-138.3" font-family="Times New Roman,serif" font-size="14.00">hello</text>
<text text-anchor="middle" x="128.5" y="-123.3" font-family="Times New Roman,serif" font-size="14.00">world</text>
<polyline fill="none" stroke="black" points="94,-115.5 163,-115.5 "/>
<text text-anchor="middle" x="106" y="-77.3" font-family="Times New Roman,serif" font-size="14.00">b</text>
<polyline fill="none" stroke="black" points="118,-46.5 118,-115.5 "/>
<text text-anchor="middle" x="130" y="-100.3" font-family="Times New Roman,serif" font-size="14.00">c</text>
<polyline fill="none" stroke="black" points="118,-92.5 142,-92.5 "/>
<text text-anchor="middle" x="130" y="-77.3" font-family="Times New Roman,serif" font-size="14.00">d</text>
<polyline fill="none" stroke="black" points="118,-69.5 142,-69.5 "/>
<text text-anchor="middle" x="130" y="-54.3" font-family="Times New Roman,serif" font-size="14.00">e</text>
<polyline fill="none" stroke="black" points="142,-46.5 142,-115.5 "/>
<text text-anchor="middle" x="152.5" y="-77.3" font-family="Times New Roman,serif" font-size="14.00">f</text>
<polyline fill="none" stroke="black" points="94,-46.5 163,-46.5 "/>
<text text-anchor="middle" x="128.5" y="-31.3" font-family="Times New Roman,serif" font-size="14.00">g</text>
<polyline fill="none" stroke="black" points="94,-23.5 163,-23.5 "/>
<text text-anchor="middle" x="128.5" y="-8.3" font-family="Times New Roman,serif" font-size="14.00">h</text>
</g>
<!-- struct1&#45;&gt;struct3 -->
<g id="edge2" class="edge"><title>struct1:f2&#45;&gt;struct3:here</title>
<path fill="none" stroke="black" d="M58,-133C69.8471,-133 93.4221,-114.434 110.479,-99.4888"/>
<polygon fill="black" stroke="black" points="113.128,-101.815 118.249,-92.5405 108.462,-96.5975 113.128,-101.815"/>
</g>
</g>
</svg>
