<?xml version="1.0" encoding="UTF-8" standalone="no"?>
<!DOCTYPE svg PUBLIC "-//W3C//DTD SVG 1.1//EN"
 "http://www.w3.org/Graphics/SVG/1.1/DTD/svg11.dtd">
<!-- Generated by graphviz version 2.38.0 (20140413.2041)
 -->
<!-- Title: structs Pages: 1 -->
<svg width="192pt" height="138pt"
 viewBox="0.00 0.00 191.50 138.00" xmlns="http://www.w3.org/2000/svg" xmlns:xlink="http://www.w3.org/1999/xlink">
<g id="graph0" class="graph" transform="scale(1 1) rotate(0) translate(4 134)">
<title>structs</title>
<polygon fill="white" stroke="none" points="-4,4 -4,-134 187.5,-134 187.5,4 -4,4"/>
<!-- struct1 -->
<g id="node1" class="node"><title>struct1</title>
<polygon fill="none" stroke="black" points="58,-101 58,-122 71,-122 71,-101 58,-101"/>
<text text-anchor="start" x="61" y="-107.8" font-family="Times New Roman,serif" font-size="14.00">a</text>
<polygon fill="none" stroke="black" points="71,-101 71,-122 85,-122 85,-101 71,-101"/>
<text text-anchor="start" x="74" y="-107.8" font-family="Times New Roman,serif" font-size="14.00">b</text>
<polygon fill="none" stroke="black" points="85,-101 85,-122 98,-122 98,-101 85,-101"/>
<text text-anchor="start" x="88" y="-107.8" font-family="Times New Roman,serif" font-size="14.00">c</text>
</g>
<!-- struct2 -->
<g id="node2" class="node"><title>struct2</title>
<polygon fill="none" stroke="black" points="14,-18 14,-39 28,-39 28,-18 14,-18"/>
<text text-anchor="start" x="17" y="-24.8" font-family="Times New Roman,serif" font-size="14.00">d</text>
<polygon fill="none" stroke="black" points="28,-18 28,-39 41,-39 41,-18 28,-18"/>
<text text-anchor="start" x="31" y="-24.8" font-family="Times New Roman,serif" font-size="14.00">e</text>
</g>
<!-- struct1&#45;&gt;struct2 -->
<g id="edge1" class="edge"><title>struct1:b&#45;&gt;struct2:d</title>
<path fill="none" stroke="black" d="M78,-100C78,-67.0977 32.3894,-74.4807 22.7684,-50.076"/>
<polygon fill="black" stroke="black" points="26.176,-49.2444 21,-40 19.2814,-50.4545 26.176,-49.2444"/>
</g>
<!-- struct3 -->
<g id="node3" class="node"><title>struct3</title>
<polygon fill="none" stroke="black" points="81,-4 81,-54 124,-54 124,-4 81,-4"/>
<text text-anchor="start" x="89" y="-32.8" font-family="Times New Roman,serif" font-size="14.00">hello</text>
<text text-anchor="start" x="86" y="-17.8" font-family="Times New Roman,serif" font-size="14.00">world</text>
<polygon fill="none" stroke="black" points="124,-29 124,-54 141,-54 141,-29 124,-29"/>
<text text-anchor="start" x="129" y="-37.8" font-family="Times New Roman,serif" font-size="14.00">c</text>
<polygon fill="none" stroke="black" points="141,-29 141,-54 159,-54 159,-29 141,-29"/>
<text text-anchor="start" x="146" y="-37.8" font-family="Times New Roman,serif" font-size="14.00">d</text>
<polygon fill="none" stroke="black" points="159,-29 159,-54 176,-54 176,-29 159,-29"/>
<text text-anchor="start" x="164" y="-37.8" font-family="Times New Roman,serif" font-size="14.00">e</text>
<polygon fill="none" stroke="black" points="124,-4 124,-29 176,-29 176,-4 124,-4"/>
<text text-anchor="start" x="147.5" y="-12.8" font-family="Times New Roman,serif" font-size="14.00">f</text>
</g>
<!-- struct1&#45;&gt;struct3 -->
<g id="edge2" class="edge"><title>struct1:c&#45;&gt;struct3:here</title>
<path fill="none" stroke="black" d="M92,-100C92,-77.3404 114.798,-60.6888 131.808,-51.4186"/>
<polygon fill="black" stroke="black" points="133.578,-54.4457 140.938,-46.8237 130.431,-48.1929 133.578,-54.4457"/>
</g>
</g>
</svg>
