<?xml version="1.0" encoding="UTF-8" standalone="no"?>
<!DOCTYPE svg PUBLIC "-//W3C//DTD SVG 1.1//EN"
 "http://www.w3.org/Graphics/SVG/1.1/DTD/svg11.dtd">
<!-- Generated by graphviz version 2.38.0 (20140413.2041)
 -->
<!-- Title: g Pages: 1 -->
<svg width="320pt" height="265pt"
 viewBox="0.00 0.00 320.18 265.00" xmlns="http://www.w3.org/2000/svg" xmlns:xlink="http://www.w3.org/1999/xlink">
<g id="graph0" class="graph" transform="scale(1 1) rotate(0) translate(4 261)">
<title>g</title>
<polygon fill="white" stroke="none" points="-4,4 -4,-261 316.18,-261 316.18,4 -4,4"/>
<g id="clust3" class="cluster"><title>cluster_003</title>
<polygon fill="none" stroke="black" points="80,-8 80,-83 222,-83 222,-8 80,-8"/>
<text text-anchor="middle" x="151" y="-67.8" font-family="Times New Roman,serif" font-size="14.00">cluster_003</text>
</g>
<g id="clust1" class="cluster"><title>cluster_001</title>
<polygon fill="none" stroke="black" points="8,-174 8,-249 222,-249 222,-174 8,-174"/>
<text text-anchor="middle" x="115" y="-233.8" font-family="Times New Roman,serif" font-size="14.00">cluster_001</text>
</g>
<g id="clust2" class="cluster"><title>cluster_002</title>
<polygon fill="none" stroke="black" points="80,-91 80,-166 294,-166 294,-91 80,-91"/>
<text text-anchor="middle" x="187" y="-150.8" font-family="Times New Roman,serif" font-size="14.00">cluster_002</text>
</g>
<!-- A -->
<g id="node1" class="node"><title>A</title>
<polygon fill="none" stroke="red" points="214,-218 160,-218 160,-182 214,-182 214,-218"/>
<text text-anchor="middle" x="187" y="-196.3" font-family="Times New Roman,serif" font-size="14.00">A</text>
</g>
<!-- E -->
<g id="node5" class="node"><title>E</title>
<polygon fill="none" stroke="green" points="214,-135 160,-135 160,-99 214,-99 214,-135"/>
<text text-anchor="middle" x="187" y="-113.3" font-family="Times New Roman,serif" font-size="14.00">E</text>
</g>
<!-- A&#45;&gt;E -->
<g id="edge1" class="edge"><title>A&#45;&gt;E</title>
<path fill="none" stroke="black" d="M187,-181.822C187,-171.19 187,-157.306 187,-145.204"/>
<polygon fill="black" stroke="black" points="190.5,-145.153 187,-135.153 183.5,-145.153 190.5,-145.153"/>
</g>
<!-- G -->
<g id="node7" class="node"><title>G</title>
<polygon fill="none" stroke="blue" points="214,-52 160,-52 160,-16 214,-16 214,-52"/>
<text text-anchor="middle" x="187" y="-30.3" font-family="Times New Roman,serif" font-size="14.00">G</text>
</g>
<!-- A&#45;&gt;G -->
<g id="edge3" class="edge"><title>A&#45;&gt;G</title>
<path fill="none" stroke="black" d="M221.677,-198.947C247.274,-196.85 280.57,-189.366 298,-166 317.931,-139.282 315.473,-119.386 298,-91 282.018,-65.0366 249.88,-50.6758 224.28,-43.0181"/>
<polygon fill="black" stroke="black" points="232.588,-41.9291 222,-42.3115 230.515,-48.6154 232.588,-41.9291"/>
</g>
<!-- B -->
<g id="node2" class="node"><title>B</title>
<polygon fill="none" stroke="red" points="142,-218 88,-218 88,-182 142,-182 142,-218"/>
<text text-anchor="middle" x="115" y="-196.3" font-family="Times New Roman,serif" font-size="14.00">B</text>
</g>
<!-- F -->
<g id="node6" class="node"><title>F</title>
<polygon fill="none" stroke="green" points="142,-135 88,-135 88,-99 142,-99 142,-135"/>
<text text-anchor="middle" x="115" y="-113.3" font-family="Times New Roman,serif" font-size="14.00">F</text>
</g>
<!-- B&#45;&gt;F -->
<g id="edge4" class="edge"><title>B&#45;&gt;F</title>
<path fill="none" stroke="black" d="M115,-181.822C115,-171.19 115,-157.306 115,-145.204"/>
<polygon fill="black" stroke="black" points="118.5,-145.153 115,-135.153 111.5,-145.153 118.5,-145.153"/>
</g>
<!-- C -->
<g id="node3" class="node"><title>C</title>
<polygon fill="none" stroke="red" points="70,-218 16,-218 16,-182 70,-182 70,-218"/>
<text text-anchor="middle" x="43" y="-196.3" font-family="Times New Roman,serif" font-size="14.00">C</text>
</g>
<!-- D -->
<g id="node4" class="node"><title>D</title>
<polygon fill="none" stroke="green" points="286,-135 232,-135 232,-99 286,-99 286,-135"/>
<text text-anchor="middle" x="259" y="-113.3" font-family="Times New Roman,serif" font-size="14.00">D</text>
</g>
<!-- F&#45;&gt;G -->
<g id="edge2" class="edge"><title>F&#45;&gt;G</title>
<path fill="none" stroke="black" d="M135.064,-98.8187C140.435,-93.9005 146.104,-88.4034 151,-83 157.334,-76.0093 163.692,-67.9577 169.264,-60.4706"/>
<polygon fill="black" stroke="black" points="172.346,-62.1843 175.396,-52.0381 166.684,-58.0675 172.346,-62.1843"/>
</g>
<!-- H -->
<g id="node8" class="node"><title>H</title>
<polygon fill="none" stroke="blue" points="142,-52 88,-52 88,-16 142,-16 142,-52"/>
<text text-anchor="middle" x="115" y="-30.3" font-family="Times New Roman,serif" font-size="14.00">H</text>
</g>
</g>
</svg>
