<?xml version="1.0" encoding="UTF-8" standalone="no"?>
<!DOCTYPE svg PUBLIC "-//W3C//DTD SVG 1.1//EN"
 "http://www.w3.org/Graphics/SVG/1.1/DTD/svg11.dtd">
<!-- Generated by graphviz version 2.38.0 (20140413.2041)
 -->
<!-- Title: g Pages: 1 -->
<svg width="62pt" height="116pt"
 viewBox="0.00 0.00 62.00 116.00" xmlns="http://www.w3.org/2000/svg" xmlns:xlink="http://www.w3.org/1999/xlink">
<g id="graph0" class="graph" transform="scale(1 1) rotate(0) translate(4 112)">
<title>g</title>
<polygon fill="green" stroke="none" points="-4,4 -4,-112 58,-112 58,4 -4,4"/>
<!-- a -->
<g id="node1" class="node"><title>a</title>
<polygon fill="none" stroke="blue" points="54,-95.5623 27,-108 3.55271e-015,-95.5623 10.3131,-75.4377 43.6869,-75.4377 54,-95.5623"/>
<text text-anchor="middle" x="27" y="-86.3" font-family="Times New Roman,serif" font-size="14.00">a</text>
</g>
<!-- b -->
<g id="node2" class="node"><title>b</title>
<polygon fill="none" stroke="blue" points="54,-23.5623 27,-36 3.55271e-015,-23.5623 10.3131,-3.43769 43.6869,-3.43769 54,-23.5623"/>
<text text-anchor="middle" x="27" y="-14.3" font-family="Times New Roman,serif" font-size="14.00">b</text>
</g>
<!-- a&#45;&gt;b -->
<g id="edge1" class="edge"><title>a&#45;&gt;b</title>
<path fill="none" stroke="red" d="M27,-75.1703C27,-66.9188 27,-56.1528 27,-46.2563"/>
<polygon fill="red" stroke="red" points="30.5001,-46.019 27,-36.019 23.5001,-46.0191 30.5001,-46.019"/>
</g>
</g>
</svg>
