<?xml version="1.0" encoding="UTF-8" standalone="no"?>
<!DOCTYPE svg PUBLIC "-//W3C//DTD SVG 1.1//EN"
 "http://www.w3.org/Graphics/SVG/1.1/DTD/svg11.dtd">
<!-- Generated by graphviz version 2.38.0 (20140413.2041)
 -->
<!-- Title: sequence Pages: 1 -->
<svg width="611pt" height="187pt"
 viewBox="0.00 0.00 611.00 187.00" xmlns="http://www.w3.org/2000/svg" xmlns:xlink="http://www.w3.org/1999/xlink">
<g id="graph0" class="graph" transform="scale(1 1) rotate(0) translate(4 183)">
<title>sequence</title>
<polygon fill="white" stroke="none" points="-4,4 -4,-183 607,-183 607,4 -4,4"/>
<!-- client_start -->
<g id="node1" class="node"><title>client_start</title>
<text text-anchor="middle" x="23" y="-143.3" font-family="Times New Roman,serif" font-size="14.00">client</text>
</g>
<!-- client_01 -->
<g id="node3" class="node"><title>client_01</title>
<polygon fill="none" stroke="black" points="26.5,-100 19.5,-100 19.5,-86 26.5,-86 26.5,-100"/>
</g>
<!-- client_start&#45;&gt;client_01 -->
<g id="edge1" class="edge"><title>client_start&#45;&gt;client_01</title>
<path fill="none" stroke="black" stroke-dasharray="5,2" d="M23,-135.498C23,-131.971 23,-129 23,-129 23,-129 23,-111 23,-111 23,-111 23,-105.305 23,-100.321"/>
</g>
<!-- client_end -->
<g id="node2" class="node"><title>client_end</title>
<ellipse fill="black" stroke="black" cx="23" cy="-0" rx="0" ry="0"/>
</g>
<!-- client_02 -->
<g id="node4" class="node"><title>client_02</title>
<polygon fill="none" stroke="black" points="26.5,-50 19.5,-50 19.5,-36 26.5,-36 26.5,-50"/>
</g>
<!-- client_01&#45;&gt;client_02 -->
<g id="edge2" class="edge"><title>client_01&#45;&gt;client_02</title>
<path fill="none" stroke="black" stroke-dasharray="5,2" d="M23,-85.8351C23,-81.3179 23,-76.3333 23,-76.3333 23,-76.3333 23,-59.6667 23,-59.6667 23,-59.6667 23,-54.6821 23,-50.1649"/>
</g>
<!-- proxy_01 -->
<g id="node7" class="node"><title>proxy_01</title>
<polygon fill="none" stroke="black" points="207.5,-100 200.5,-100 200.5,-86 207.5,-86 207.5,-100"/>
</g>
<!-- client_01&#45;&gt;proxy_01 -->
<g id="edge12" class="edge"><title>client_01&#45;&gt;proxy_01</title>
<path fill="none" stroke="black" d="M26.5304,-93C44.4718,-93 152.829,-93 190.279,-93"/>
<polygon fill="black" stroke="black" points="190.304,-96.5001 200.304,-93 190.304,-89.5001 190.304,-96.5001"/>
<text text-anchor="middle" x="112.5" y="-96.8" font-family="Times New Roman,serif" font-size="14.00">send request</text>
</g>
<!-- client_02&#45;&gt;client_end -->
<g id="edge3" class="edge"><title>client_02&#45;&gt;client_end</title>
<path fill="none" stroke="black" stroke-dasharray="5,2" d="M23,-35.8333C23,-32.25 23,-28.6667 23,-28.6667 23,-28.6667 23,-14.3333 23,-14.3333 23,-14.3333 23,-1.73568 23,-0.16097"/>
</g>
<!-- proxy_start -->
<g id="node5" class="node"><title>proxy_start</title>
<text text-anchor="middle" x="204" y="-143.3" font-family="Times New Roman,serif" font-size="14.00">proxy</text>
</g>
<!-- proxy_start&#45;&gt;proxy_01 -->
<g id="edge4" class="edge"><title>proxy_start&#45;&gt;proxy_01</title>
<path fill="none" stroke="black" stroke-dasharray="5,2" d="M204,-135.498C204,-131.971 204,-129 204,-129 204,-129 204,-111 204,-111 204,-111 204,-105.305 204,-100.321"/>
</g>
<!-- proxy_end -->
<g id="node6" class="node"><title>proxy_end</title>
<ellipse fill="black" stroke="black" cx="204" cy="-0" rx="0" ry="0"/>
</g>
<!-- proxy_02 -->
<g id="node8" class="node"><title>proxy_02</title>
<polygon fill="none" stroke="black" points="207.5,-50 200.5,-50 200.5,-36 207.5,-36 207.5,-50"/>
</g>
<!-- proxy_01&#45;&gt;proxy_02 -->
<g id="edge5" class="edge"><title>proxy_01&#45;&gt;proxy_02</title>
<path fill="none" stroke="black" stroke-dasharray="5,2" d="M204,-85.8351C204,-81.3179 204,-76.3333 204,-76.3333 204,-76.3333 204,-59.6667 204,-59.6667 204,-59.6667 204,-54.6821 204,-50.1649"/>
</g>
<!-- gateway_01 -->
<g id="node11" class="node"><title>gateway_01</title>
<polygon fill="none" stroke="black" points="396.5,-100 389.5,-100 389.5,-86 396.5,-86 396.5,-100"/>
</g>
<!-- proxy_01&#45;&gt;gateway_01 -->
<g id="edge13" class="edge"><title>proxy_01&#45;&gt;gateway_01</title>
<path fill="none" stroke="black" d="M207.643,-93C226.466,-93 340.548,-93 379.204,-93"/>
<polygon fill="black" stroke="black" points="379.452,-96.5001 389.452,-93 379.452,-89.5001 379.452,-96.5001"/>
<text text-anchor="middle" x="295.5" y="-96.8" font-family="Times New Roman,serif" font-size="14.00">redirect request</text>
</g>
<!-- proxy_02&#45;&gt;client_02 -->
<g id="edge17" class="edge"><title>proxy_02&#45;&gt;client_02</title>
<path fill="none" stroke="black" d="M200.304,-43C181.898,-43 74.3475,-43 36.8718,-43"/>
<polygon fill="black" stroke="black" points="36.5304,-39.5001 26.5304,-43 36.5304,-46.5001 36.5304,-39.5001"/>
<text text-anchor="middle" x="112.5" y="-46.8" font-family="Times New Roman,serif" font-size="14.00">redirect response</text>
</g>
<!-- proxy_02&#45;&gt;proxy_end -->
<g id="edge6" class="edge"><title>proxy_02&#45;&gt;proxy_end</title>
<path fill="none" stroke="black" stroke-dasharray="5,2" d="M204,-35.8333C204,-32.25 204,-28.6667 204,-28.6667 204,-28.6667 204,-14.3333 204,-14.3333 204,-14.3333 204,-1.73568 204,-0.16097"/>
</g>
<!-- gateway_start -->
<g id="node9" class="node"><title>gateway_start</title>
<text text-anchor="middle" x="393" y="-143.3" font-family="Times New Roman,serif" font-size="14.00">gateway</text>
</g>
<!-- gateway_start&#45;&gt;gateway_01 -->
<g id="edge7" class="edge"><title>gateway_start&#45;&gt;gateway_01</title>
<path fill="none" stroke="black" stroke-dasharray="5,2" d="M393,-135.498C393,-131.971 393,-129 393,-129 393,-129 393,-111 393,-111 393,-111 393,-105.305 393,-100.321"/>
</g>
<!-- gateway_end -->
<g id="node10" class="node"><title>gateway_end</title>
<ellipse fill="black" stroke="black" cx="393" cy="-0" rx="0" ry="0"/>
</g>
<!-- gateway_02 -->
<g id="node12" class="node"><title>gateway_02</title>
<polygon fill="none" stroke="black" points="396.5,-50 389.5,-50 389.5,-36 396.5,-36 396.5,-50"/>
</g>
<!-- gateway_01&#45;&gt;gateway_02 -->
<g id="edge8" class="edge"><title>gateway_01&#45;&gt;gateway_02</title>
<path fill="none" stroke="black" stroke-dasharray="5,2" d="M393,-85.8351C393,-81.3179 393,-76.3333 393,-76.3333 393,-76.3333 393,-59.6667 393,-59.6667 393,-59.6667 393,-54.6821 393,-50.1649"/>
</g>
<!-- service_01 -->
<g id="node15" class="node"><title>service_01</title>
<polygon fill="none" stroke="black" points="578.5,-93 571.5,-93 571.5,-43 578.5,-43 578.5,-93"/>
</g>
<!-- gateway_01&#45;&gt;service_01 -->
<g id="edge14" class="edge"><title>gateway_01&#45;&gt;service_01:nw</title>
<path fill="none" stroke="black" d="M396.765,-93C415.569,-93 524.977,-93 559.54,-93"/>
<polygon fill="black" stroke="black" points="560,-96.5001 570,-93 560,-89.5001 560,-96.5001"/>
<text text-anchor="middle" x="485.5" y="-96.8" font-family="Times New Roman,serif" font-size="14.00">redirect request</text>
</g>
<!-- gateway_02&#45;&gt;proxy_02 -->
<g id="edge16" class="edge"><title>gateway_02&#45;&gt;proxy_02</title>
<path fill="none" stroke="black" d="M389.452,-43C370.914,-43 256.409,-43 217.74,-43"/>
<polygon fill="black" stroke="black" points="217.644,-39.5001 207.643,-43 217.643,-46.5001 217.644,-39.5001"/>
<text text-anchor="middle" x="295.5" y="-46.8" font-family="Times New Roman,serif" font-size="14.00">redirect response</text>
</g>
<!-- gateway_02&#45;&gt;gateway_end -->
<g id="edge9" class="edge"><title>gateway_02&#45;&gt;gateway_end</title>
<path fill="none" stroke="black" stroke-dasharray="5,2" d="M393,-35.8333C393,-32.25 393,-28.6667 393,-28.6667 393,-28.6667 393,-14.3333 393,-14.3333 393,-14.3333 393,-1.73568 393,-0.16097"/>
</g>
<!-- service_start -->
<g id="node13" class="node"><title>service_start</title>
<text text-anchor="middle" x="575" y="-150.3" font-family="Times New Roman,serif" font-size="14.00">service</text>
</g>
<!-- service_start&#45;&gt;service_01 -->
<g id="edge10" class="edge"><title>service_start&#45;&gt;service_01</title>
<path fill="none" stroke="black" stroke-dasharray="5,2" d="M575,-128.848C575,-126.705 575,-125.333 575,-125.333 575,-125.333 575,-96.6667 575,-96.6667 575,-96.6667 575,-95.2949 575,-93.1516"/>
</g>
<!-- service_end -->
<g id="node14" class="node"><title>service_end</title>
<ellipse fill="black" stroke="black" cx="575" cy="-7" rx="0" ry="0"/>
</g>
<!-- service_01&#45;&gt;gateway_02 -->
<g id="edge15" class="edge"><title>service_01:sw&#45;&gt;gateway_02</title>
<path fill="none" stroke="black" d="M572,-43C572,-43 447.274,-43 406.634,-43"/>
<polygon fill="black" stroke="black" points="406.516,-39.5001 396.516,-43 406.516,-46.5001 406.516,-39.5001"/>
<text text-anchor="middle" x="485.5" y="-46.8" font-family="Times New Roman,serif" font-size="14.00">send response</text>
</g>
<!-- service_01&#45;&gt;service_end -->
<g id="edge11" class="edge"><title>service_01&#45;&gt;service_end</title>
<path fill="none" stroke="black" stroke-dasharray="5,2" d="M575,-42.9507C575,-36.944 575,-27.3333 575,-27.3333 575,-27.3333 575,-8.25098 575,-7.05833"/>
</g>
</g>
</svg>
