<?xml version="1.0" encoding="UTF-8" standalone="no"?>
<!DOCTYPE svg PUBLIC "-//W3C//DTD SVG 1.1//EN"
 "http://www.w3.org/Graphics/SVG/1.1/DTD/svg11.dtd">
<!-- Generated by graphviz version 2.38.0 (20140413.2041)
 -->
<!-- Title: v Pages: 1 -->
<svg width="490pt" height="404pt"
 viewBox="0.00 0.00 489.50 404.00" xmlns="http://www.w3.org/2000/svg" xmlns:xlink="http://www.w3.org/1999/xlink">
<g id="graph0" class="graph" transform="scale(1 1) rotate(0) translate(4 400)">
<title>v</title>
<polygon fill="white" stroke="none" points="-4,4 -4,-400 485.5,-400 485.5,4 -4,4"/>
<!-- local_fs_pre_target -->
<g id="node1" class="node"><title>local_fs_pre_target</title>
<polygon fill="#00b2ee" stroke="black" points="115,-396 0,-396 0,-360 115,-360 115,-396"/>
<text text-anchor="middle" x="57.5" y="-374.3" font-family="Times New Roman,serif" font-size="14.00">local&#45;fs&#45;pre.target</text>
</g>
<!-- local_fs_target -->
<g id="node2" class="node"><title>local_fs_target</title>
<polygon fill="#00b2ee" stroke="black" points="103.5,-324 11.5,-324 11.5,-288 103.5,-288 103.5,-324"/>
<text text-anchor="middle" x="57.5" y="-302.3" font-family="Times New Roman,serif" font-size="14.00">local&#45;fs.target</text>
</g>
<!-- local_fs_pre_target&#45;&#45;local_fs_target -->
<g id="edge1" class="edge"><title>local_fs_pre_target&#45;&#45;local_fs_target</title>
<path fill="none" stroke="black" d="M57.5,-359.697C57.5,-348.846 57.5,-334.917 57.5,-324.104"/>
</g>
<!-- sysinit_target -->
<g id="node6" class="node"><title>sysinit_target</title>
<polygon fill="#00b2ee" stroke="black" points="260.5,-252 174.5,-252 174.5,-216 260.5,-216 260.5,-252"/>
<text text-anchor="middle" x="217.5" y="-230.3" font-family="Times New Roman,serif" font-size="14.00">sysinit.target</text>
</g>
<!-- local_fs_target&#45;&#45;sysinit_target -->
<g id="edge3" class="edge"><title>local_fs_target&#45;&#45;sysinit_target</title>
<path fill="none" stroke="black" d="M96.6404,-287.876C121.527,-276.988 153.625,-262.945 178.487,-252.068"/>
</g>
<!-- swap_target -->
<g id="node3" class="node"><title>swap_target</title>
<polygon fill="#00b2ee" stroke="black" points="201.5,-324 121.5,-324 121.5,-288 201.5,-288 201.5,-324"/>
<text text-anchor="middle" x="161.5" y="-302.3" font-family="Times New Roman,serif" font-size="14.00">swap.target</text>
</g>
<!-- swap_target&#45;&#45;sysinit_target -->
<g id="edge2" class="edge"><title>swap_target&#45;&#45;sysinit_target</title>
<path fill="none" stroke="black" d="M175.343,-287.697C184.023,-276.846 195.167,-262.917 203.817,-252.104"/>
</g>
<!-- cryptsetup_target -->
<g id="node4" class="node"><title>cryptsetup_target</title>
<polygon fill="#00b2ee" stroke="black" points="329.5,-324 219.5,-324 219.5,-288 329.5,-288 329.5,-324"/>
<text text-anchor="middle" x="274.5" y="-302.3" font-family="Times New Roman,serif" font-size="14.00">cryptsetup.target</text>
</g>
<!-- cryptsetup_target&#45;&#45;sysinit_target -->
<g id="edge4" class="edge"><title>cryptsetup_target&#45;&#45;sysinit_target</title>
<path fill="none" stroke="black" d="M260.41,-287.697C251.575,-276.846 240.232,-262.917 231.428,-252.104"/>
</g>
<!-- other_target -->
<g id="node5" class="node"><title>other_target</title>
<polygon fill="#00b2ee" stroke="black" points="481.5,-324 347.5,-324 347.5,-288 481.5,-288 481.5,-324"/>
<text text-anchor="middle" x="414.5" y="-302.3" font-family="Times New Roman,serif" font-size="14.00">其它系统初始化service</text>
</g>
<!-- other_target&#45;&#45;sysinit_target -->
<g id="edge5" class="edge"><title>other_target&#45;&#45;sysinit_target</title>
<path fill="none" stroke="black" d="M366.56,-287.966C334.215,-276.472 291.89,-261.433 260.609,-250.318"/>
</g>
<!-- basic_target -->
<g id="node7" class="node"><title>basic_target</title>
<polygon fill="#00b2ee" stroke="black" points="257.5,-180 177.5,-180 177.5,-144 257.5,-144 257.5,-180"/>
<text text-anchor="middle" x="217.5" y="-158.3" font-family="Times New Roman,serif" font-size="14.00">basic.target</text>
</g>
<!-- sysinit_target&#45;&#45;basic_target -->
<g id="edge6" class="edge"><title>sysinit_target&#45;&#45;basic_target</title>
<path fill="none" stroke="black" d="M217.5,-215.697C217.5,-204.846 217.5,-190.917 217.5,-180.104"/>
</g>
<!-- multi_user_target -->
<g id="node8" class="node"><title>multi_user_target</title>
<polygon fill="#00b2ee" stroke="black" points="270.5,-108 164.5,-108 164.5,-72 270.5,-72 270.5,-108"/>
<text text-anchor="middle" x="217.5" y="-86.3" font-family="Times New Roman,serif" font-size="14.00">multi&#45;user.target</text>
</g>
<!-- basic_target&#45;&#45;multi_user_target -->
<g id="edge7" class="edge"><title>basic_target&#45;&#45;multi_user_target</title>
<path fill="none" stroke="black" d="M217.5,-143.697C217.5,-132.846 217.5,-118.917 217.5,-108.104"/>
</g>
<!-- graphical_target -->
<g id="node10" class="node"><title>graphical_target</title>
<polygon fill="#00b2ee" stroke="black" points="341,-36 240,-36 240,-0 341,-0 341,-36"/>
<text text-anchor="middle" x="290.5" y="-14.3" font-family="Times New Roman,serif" font-size="14.00">graphical.target</text>
</g>
<!-- multi_user_target&#45;&#45;graphical_target -->
<g id="edge9" class="edge"><title>multi_user_target&#45;&#45;graphical_target</title>
<path fill="none" stroke="black" d="M235.545,-71.6966C246.86,-60.8463 261.387,-46.9167 272.663,-36.1043"/>
</g>
<!-- display_manager_service -->
<g id="node9" class="node"><title>display_manager_service</title>
<polygon fill="#00b2ee" stroke="black" points="438.5,-108 288.5,-108 288.5,-72 438.5,-72 438.5,-108"/>
<text text-anchor="middle" x="363.5" y="-86.3" font-family="Times New Roman,serif" font-size="14.00">display&#45;manager.service</text>
</g>
<!-- display_manager_service&#45;&#45;graphical_target -->
<g id="edge8" class="edge"><title>display_manager_service&#45;&#45;graphical_target</title>
<path fill="none" stroke="black" d="M345.455,-71.6966C334.14,-60.8463 319.613,-46.9167 308.337,-36.1043"/>
</g>
</g>
</svg>
