<svg version="1.1" xmlns="http://www.w3.org/2000/svg" viewBox="0 0 1383.6581387727158 608.023246816257" width="1383.6581387727158" height="608.023246816257">
  <!-- svg-source:excalidraw -->
  
  <defs>
    <style class="style-fonts">
      @font-face {
        font-family: "Virgil";
        src: url("https://excalidraw.com/Virgil.woff2");
      }
      @font-face {
        font-family: "Cascadia";
        src: url("https://excalidraw.com/Cascadia.woff2");
      }
      @font-face {
        font-family: "Assistant";
        src: url("https://excalidraw.com/Assistant-Regular.woff2");
      }
    </style>
    
  </defs>
  <rect x="0" y="0" width="1383.6581387727158" height="608.023246816257" fill="#ffffff"></rect><g stroke-linecap="round" transform="translate(265 36.5) rotate(0 204 26.5)"><path d="M13.25 0 C128.58 -3.75, 246.24 -2.57, 394.75 0 C401.21 -0.72, 409.29 5.77, 408 13.25 C405.55 18.35, 407.7 30.17, 408 39.75 C410.03 46.61, 402.47 51.89, 394.75 53 C287.33 54.39, 177.77 53.69, 13.25 53 C2.08 52.17, -3.5 47.86, 0 39.75 C-1.03 33.11, 1.63 31.54, 0 13.25 C-0.61 5.57, 3.68 1.49, 13.25 0" stroke="none" stroke-width="0" fill="#a5d8ff"></path><path d="M13.25 0 C119.8 -0.81, 227.18 -1.42, 394.75 0 M13.25 0 C160.22 1.28, 308.42 1.37, 394.75 0 M394.75 0 C402.91 1.9, 406.34 3.97, 408 13.25 M394.75 0 C404.14 0.86, 408.02 4.49, 408 13.25 M408 13.25 C409.71 21.62, 407.68 30.65, 408 39.75 M408 13.25 C408.28 23.16, 407.31 33.75, 408 39.75 M408 39.75 C407.59 50.32, 401.6 52.33, 394.75 53 M408 39.75 C409.87 47.35, 405.72 54.15, 394.75 53 M394.75 53 C242.63 53.96, 90.52 56.07, 13.25 53 M394.75 53 C263.83 52.14, 132.38 51.42, 13.25 53 M13.25 53 C3.5 54.51, 1.82 46.97, 0 39.75 M13.25 53 C2.9 53.63, 2.19 49.41, 0 39.75 M0 39.75 C0 34.48, 2.14 27.43, 0 13.25 M0 39.75 C1 32.99, -0.02 25.3, 0 13.25 M0 13.25 C0.61 2.49, 4.1 1.03, 13.25 0 M0 13.25 C0.69 3.79, 4.42 0.86, 13.25 0" stroke="#1e1e1e" stroke-width="2" fill="none"></path></g><g transform="translate(401.1999969482422 51.5) rotate(0 67.80000305175781 11.5)"><text x="67.80000305175781" y="18.400390625" font-family="Helvetica, Segoe UI Emoji" font-size="20px" fill="#1e1e1e" text-anchor="middle" style="white-space: pre;" direction="ltr" dominant-baseline="alphabetic">ELF file header</text></g><g stroke-linecap="round" transform="translate(267 89) rotate(0 204 61)"><path d="M30.5 0 C145.08 1.79, 258.96 -2.18, 377.5 0 C398.03 -1.89, 410.23 10.76, 408 30.5 C411.01 47.16, 407.77 58.43, 408 91.5 C410.04 110.54, 396.32 119.67, 377.5 122 C292.04 120.79, 209.52 121.08, 30.5 122 C7.74 121.44, -0.96 110.04, 0 91.5 C3.31 69.93, -1.38 45.04, 0 30.5 C-1.44 7.34, 10.13 -2.43, 30.5 0" stroke="none" stroke-width="0" fill="#b2f2bb"></path><path d="M30.5 0 C135.37 -1.09, 240.59 0.74, 377.5 0 M30.5 0 C131.32 -0.63, 233.51 -0.42, 377.5 0 M377.5 0 C396.55 -0.21, 408.31 8.61, 408 30.5 M377.5 0 C397.7 0.08, 406.93 8.99, 408 30.5 M408 30.5 C410.11 51.28, 410.15 68.64, 408 91.5 M408 30.5 C409.38 43.66, 408.91 57.2, 408 91.5 M408 91.5 C407.64 111.04, 398.6 120.59, 377.5 122 M408 91.5 C409.6 109.91, 399.65 123.58, 377.5 122 M377.5 122 C256.5 122.78, 136.09 120.54, 30.5 122 M377.5 122 C270.74 123.66, 164.75 123.41, 30.5 122 M30.5 122 C11.94 123.37, -1.84 111.98, 0 91.5 M30.5 122 C10.4 121.67, -2.3 109.58, 0 91.5 M0 91.5 C1.91 72.69, -1.59 54.8, 0 30.5 M0 91.5 C-0.12 77.96, -1.09 65.54, 0 30.5 M0 30.5 C-0.78 9.4, 11.12 0.26, 30.5 0 M0 30.5 C-1.12 9.78, 11.53 0.98, 30.5 0" stroke="#1e1e1e" stroke-width="2" fill="none"></path></g><g transform="translate(375.4000015258789 138.5) rotate(0 95.5999984741211 11.5)"><text x="95.5999984741211" y="18.400390625" font-family="Helvetica, Segoe UI Emoji" font-size="20px" fill="#1e1e1e" text-anchor="middle" style="white-space: pre;" direction="ltr" dominant-baseline="alphabetic">program header table</text></g><g stroke-linecap="round" transform="translate(269 212) rotate(0 204 127.5)"><path d="M32 0 C123.31 3.39, 219.65 -0.65, 376 0 C395.81 1.46, 409.67 11.97, 408 32 C406.66 75.56, 405.27 113.02, 408 223 C410.35 243.61, 394.52 255.31, 376 255 C299.6 251.55, 221.26 252.15, 32 255 C14.01 253.1, 1.15 247.21, 0 223 C-0.84 151.79, 2.72 77.22, 0 32 C-1.27 12.6, 9.29 -3.11, 32 0" stroke="none" stroke-width="0" fill="#ffc9c9"></path><path d="M32 0 C120.57 -0.97, 210.41 -0.28, 376 0 M32 0 C117.08 0.12, 202.58 0.68, 376 0 M376 0 C395.78 -0.87, 406.35 11.65, 408 32 M376 0 C396.05 -1.41, 408.53 10.74, 408 32 M408 32 C407.81 89.52, 408.36 150.62, 408 223 M408 32 C408.89 90.06, 409.05 149.04, 408 223 M408 223 C409.02 245.23, 398.35 253.8, 376 255 M408 223 C409.63 244.08, 398.53 255.03, 376 255 M376 255 C300.86 255.69, 228.07 254.48, 32 255 M376 255 C270.41 256.1, 163.97 257.13, 32 255 M32 255 C9.33 253.18, -0.78 242.39, 0 223 M32 255 C11.34 254.05, -0.42 245.22, 0 223 M0 223 C0.5 169.03, 0.9 116.03, 0 32 M0 223 C1.55 162.82, 2.41 102.75, 0 32 M0 32 C1.71 10.36, 12.34 -0.37, 32 0 M0 32 C-0.71 10.86, 12.21 2.23, 32 0" stroke="#1e1e1e" stroke-width="2" fill="none"></path></g><g stroke-linecap="round" transform="translate(272 468.5) rotate(0 204 61)"><path d="M30.5 0 C137.61 -3.7, 244.27 -5.4, 377.5 0 C399.11 -1.5, 409.2 8.12, 408 30.5 C406.32 43.36, 404.61 56.54, 408 91.5 C407.56 110.05, 399.66 123.59, 377.5 122 C285.57 122.7, 196.86 120.92, 30.5 122 C8.98 122.63, 2.27 112.16, 0 91.5 C-4.04 67.95, 3.04 47.89, 0 30.5 C-2.41 9.31, 9.1 0.63, 30.5 0" stroke="none" stroke-width="0" fill="#ffec99"></path><path d="M30.5 0 C106.24 -2.27, 182.37 -2.01, 377.5 0 M30.5 0 C155.44 -0.45, 281.1 0.09, 377.5 0 M377.5 0 C399.77 -0.64, 408.83 9.89, 408 30.5 M377.5 0 C395.72 -0.73, 408.74 11.29, 408 30.5 M408 30.5 C407.37 53.77, 406.92 80.26, 408 91.5 M408 30.5 C407.85 44.25, 408.16 59.58, 408 91.5 M408 91.5 C408.71 110.11, 395.88 123.35, 377.5 122 M408 91.5 C409.54 113.84, 399.52 121.94, 377.5 122 M377.5 122 C284.82 120.86, 190.83 122.51, 30.5 122 M377.5 122 C297.31 121.89, 216.53 122.23, 30.5 122 M30.5 122 C10.49 120.83, -1.18 111.51, 0 91.5 M30.5 122 C10.55 123.89, -1.97 110.28, 0 91.5 M0 91.5 C0.68 74.54, -0.57 60.95, 0 30.5 M0 91.5 C-0.81 67.75, -1.31 45.47, 0 30.5 M0 30.5 C-0.26 11.88, 11.96 -1.85, 30.5 0 M0 30.5 C-0.45 11.49, 9.59 1.92, 30.5 0" stroke="#1e1e1e" stroke-width="2" fill="none"></path></g><g transform="translate(385.95833587646484 518) rotate(0 90.04166412353516 11.5)"><text x="90.04166412353516" y="18.400390625" font-family="Helvetica, Segoe UI Emoji" font-size="20px" fill="#1e1e1e" text-anchor="middle" style="white-space: pre;" direction="ltr" dominant-baseline="alphabetic">section header table</text></g><g stroke-linecap="round"><g transform="translate(264 117.5) rotate(0 -72 61.5)"><path d="M0.14 -0.85 C-24.85 8.92, -150.23 39.16, -149.32 59.75 C-148.41 80.33, -20.25 112.08, 5.6 122.65 M-1.24 1.32 C-26.47 11.79, -151.5 40.74, -150.43 61.15 C-149.37 81.56, -20.99 113.25, 5.15 123.79" stroke="#1971c2" stroke-width="2" fill="none"></path></g><g transform="translate(264 117.5) rotate(0 -72 61.5)"><path d="M-19.83 124.81 C-12.42 123.89, -2.6 125.06, 5.15 123.79 M-19.83 124.81 C-12.85 124.8, -6.62 124.02, 5.15 123.79" stroke="#1971c2" stroke-width="2" fill="none"></path></g><g transform="translate(264 117.5) rotate(0 -72 61.5)"><path d="M-14.63 108.51 C-8.91 113.36, -0.92 120.29, 5.15 123.79 M-14.63 108.51 C-8.96 112.93, -4.14 116.57, 5.15 123.79" stroke="#1971c2" stroke-width="2" fill="none"></path></g></g><mask></mask><g stroke-linecap="round"><g transform="translate(261.4190369322164 142.02758505776063) rotate(0 -73.5 97)"><path d="M-1.15 1.02 C-25.98 11.15, -148.95 28.39, -148.24 60.36 C-147.54 92.34, -21.79 170.6, 3.07 192.86 M0.45 0.51 C-24.55 10.3, -149.19 26.25, -148.79 58.43 C-148.39 90.61, -22.04 170.82, 2.86 193.58" stroke="#1971c2" stroke-width="2" fill="none"></path></g><g transform="translate(261.4190369322164 142.02758505776063) rotate(0 -73.5 97)"><path d="M-21.02 186.19 C-10.61 190.38, -2.95 193.61, 2.86 193.58 M-21.02 186.19 C-15.56 187.97, -11.97 189.71, 2.86 193.58" stroke="#1971c2" stroke-width="2" fill="none"></path></g><g transform="translate(261.4190369322164 142.02758505776063) rotate(0 -73.5 97)"><path d="M-10.68 172.57 C-4.1 181.65, -0.24 189.86, 2.86 193.58 M-10.68 172.57 C-7.47 177.13, -6 181.67, 2.86 193.58" stroke="#1971c2" stroke-width="2" fill="none"></path></g></g><mask></mask><g stroke-linecap="round"><g transform="translate(263.3655088363189 167.95630120846448) rotate(0 -74.5 129.00000000000003)"><path d="M-0.16 -0.3 C-25.18 9.92, -150.02 17.27, -149.97 60.48 C-149.92 103.7, -24.72 226.17, 0.14 258.99 M-1.7 -1.5 C-26.37 8.43, -147.96 15.5, -147.77 58.61 C-147.58 101.73, -25.02 223.9, -0.55 257.16" stroke="#1971c2" stroke-width="2" fill="none"></path></g><g transform="translate(263.3655088363189 167.95630120846448) rotate(0 -74.5 129.00000000000003)"><path d="M-22.36 244.94 C-16.09 247.2, -7.92 252.9, -0.55 257.16 M-22.36 244.94 C-13.59 250.24, -5.13 254.64, -0.55 257.16" stroke="#1971c2" stroke-width="2" fill="none"></path></g><g transform="translate(263.3655088363189 167.95630120846448) rotate(0 -74.5 129.00000000000003)"><path d="M-9.4 233.78 C-7.28 239.53, -3.19 248.74, -0.55 257.16 M-9.4 233.78 C-5.66 243.28, -2.16 251.95, -0.55 257.16" stroke="#1971c2" stroke-width="2" fill="none"></path></g></g><mask></mask><g stroke-linecap="round"><g transform="translate(677 572.5) rotate(0 57 -66)"><path d="M-0.41 -0.79 C18.64 -11.81, 113.35 -43.24, 113.64 -65.14 C113.93 -87.04, 19.93 -121.03, 1.33 -132.19 M1.58 1.41 C20.49 -10.03, 112.73 -44.75, 112.5 -66.81 C112.27 -88.87, 18.58 -120.26, 0.22 -130.97" stroke="#1971c2" stroke-width="2" fill="none"></path></g><g transform="translate(677 572.5) rotate(0 57 -66)"><path d="M25.16 -129.21 C17.68 -130.33, 14.29 -131.27, 0.22 -130.97 M25.16 -129.21 C18.4 -130.63, 11.93 -130.99, 0.22 -130.97" stroke="#1971c2" stroke-width="2" fill="none"></path></g><g transform="translate(677 572.5) rotate(0 57 -66)"><path d="M18.19 -113.59 C12.31 -118.54, 10.63 -123.32, 0.22 -130.97 M18.19 -113.59 C13.4 -119.44, 8.92 -124.25, 0.22 -130.97" stroke="#1971c2" stroke-width="2" fill="none"></path></g></g><mask></mask><g stroke-linecap="round"><g transform="translate(681.3830891583325 538.3877862847735) rotate(0 55.5 -65)"><path d="M-1.15 -0.52 C18.12 -11.41, 115.44 -43.93, 115.12 -65.49 C114.8 -87.05, 16.51 -119.2, -3.07 -129.88 M0.45 1.82 C19.69 -9.42, 115.48 -45.62, 114.76 -67.34 C114.03 -89.06, 15.55 -118.35, -3.88 -128.5" stroke="#1971c2" stroke-width="2" fill="none"></path></g><g transform="translate(681.3830891583325 538.3877862847735) rotate(0 55.5 -65)"><path d="M21.11 -127.74 C13.73 -126.31, 8.95 -128.5, -3.88 -128.5 M21.11 -127.74 C12.99 -128.53, 4.96 -128.06, -3.88 -128.5" stroke="#1971c2" stroke-width="2" fill="none"></path></g><g transform="translate(681.3830891583325 538.3877862847735) rotate(0 55.5 -65)"><path d="M14.78 -111.85 C9.07 -114.51, 5.94 -120.83, -3.88 -128.5 M14.78 -111.85 C8.53 -117.59, 2.46 -122.05, -3.88 -128.5" stroke="#1971c2" stroke-width="2" fill="none"></path></g></g><mask></mask><g stroke-linecap="round"><g transform="translate(682.3830891583325 512.3877862847735) rotate(0 56.5 -85.5)"><path d="M-0.43 -0.73 C18.33 -11.73, 113 -37.71, 112.95 -66.28 C112.9 -94.84, 18.28 -154.56, -0.71 -172.12 M1.55 1.51 C20.64 -9.29, 115.59 -36.07, 115.11 -64.88 C114.63 -93.7, 17.98 -153.73, -1.32 -171.39" stroke="#1971c2" stroke-width="2" fill="none"></path></g><g transform="translate(682.3830891583325 512.3877862847735) rotate(0 56.5 -85.5)"><path d="M22.58 -164.06 C13.46 -168.32, 6.28 -168.52, -1.32 -171.39 M22.58 -164.06 C16.99 -165.73, 12.03 -166.37, -1.32 -171.39" stroke="#1971c2" stroke-width="2" fill="none"></path></g><g transform="translate(682.3830891583325 512.3877862847735) rotate(0 56.5 -85.5)"><path d="M12.27 -150.41 C6.6 -159.16, 2.84 -163.89, -1.32 -171.39 M12.27 -150.41 C8.82 -154.85, 5.98 -158.32, -1.32 -171.39" stroke="#1971c2" stroke-width="2" fill="none"></path></g></g><mask></mask><g stroke-linecap="round"><g transform="translate(680.3830891583325 490.3877862847735) rotate(0 56.5 -107.5)"><path d="M0.79 0.23 C19.8 -10.81, 114.38 -29.23, 113.97 -65.27 C113.56 -101.3, 17.46 -190.84, -1.68 -215.99 M-0.26 -0.69 C18.6 -12.16, 113.44 -31.25, 113.01 -67 C112.59 -102.75, 16.12 -190.41, -2.81 -215.19" stroke="#1971c2" stroke-width="2" fill="none"></path></g><g transform="translate(680.3830891583325 490.3877862847735) rotate(0 56.5 -107.5)"><path d="M19.39 -203.69 C13.19 -206.95, 7.54 -211.41, -2.81 -215.19 M19.39 -203.69 C15.52 -206.39, 8.87 -209.47, -2.81 -215.19" stroke="#1971c2" stroke-width="2" fill="none"></path></g><g transform="translate(680.3830891583325 490.3877862847735) rotate(0 56.5 -107.5)"><path d="M6.8 -192.11 C4.19 -198.84, 2.22 -206.68, -2.81 -215.19 M6.8 -192.11 C5.66 -197.21, 1.75 -202.81, -2.81 -215.19" stroke="#1971c2" stroke-width="2" fill="none"></path></g></g><mask></mask><g stroke-linecap="round"><g transform="translate(89 31.5) rotate(0 -2.5 282.5)"><path d="M-0.94 -0.39 C-1.77 93.66, -5 470.61, -5.68 564.99 M0.77 -1.64 C0.39 92.55, -2.24 472.25, -3.32 566.52" stroke="#1971c2" stroke-width="2" fill="none"></path></g><g transform="translate(89 31.5) rotate(0 -2.5 282.5)"><path d="M-11.67 542.96 C-10.16 547.6, -7.5 554.46, -3.32 566.52 M-11.67 542.96 C-8.06 552.02, -4.59 560.94, -3.32 566.52" stroke="#1971c2" stroke-width="2" fill="none"></path></g><g transform="translate(89 31.5) rotate(0 -2.5 282.5)"><path d="M5.43 543.11 C2.8 547.58, 1.31 554.4, -3.32 566.52 M5.43 543.11 C2.66 552.09, -0.25 560.95, -3.32 566.52" stroke="#1971c2" stroke-width="2" fill="none"></path></g></g><mask></mask><g transform="translate(10 51.5) rotate(0 21.674999237060547 11.5)"><text x="0" y="18.400390625" font-family="Helvetica, Segoe UI Emoji" font-size="20px" fill="#1971c2" text-anchor="start" style="white-space: pre;" direction="ltr" dominant-baseline="alphabetic">0x00</text></g><g transform="translate(800.108150979747 10) rotate(0 286.7749938964844 23)"><text x="0" y="18.400390625" font-family="Helvetica, Segoe UI Emoji" font-size="20px" fill="#1971c2" text-anchor="start" style="white-space: pre;" direction="ltr" dominant-baseline="alphabetic">描述体系结构和操作系统等元信息</text><text x="0" y="41.400390625" font-family="Helvetica, Segoe UI Emoji" font-size="20px" fill="#1971c2" text-anchor="start" style="white-space: pre;" direction="ltr" dominant-baseline="alphabetic">记录 section header table 和 program header table 在文件的位置</text></g><g transform="translate(808.3331570832631 113.25) rotate(0 256.70001220703125 34.5)"><text x="0" y="18.400390625" font-family="Helvetica, Segoe UI Emoji" font-size="20px" fill="#1971c2" text-anchor="start" style="white-space: pre;" direction="ltr" dominant-baseline="alphabetic">主要记录各个segment的信息，segment主要用于程序加载</text><text x="0" y="41.400390625" font-family="Helvetica, Segoe UI Emoji" font-size="20px" fill="#1971c2" text-anchor="start" style="white-space: pre;" direction="ltr" dominant-baseline="alphabetic"></text><text x="0" y="64.400390625" font-family="Helvetica, Segoe UI Emoji" font-size="20px" fill="#1971c2" text-anchor="start" style="white-space: pre;" direction="ltr" dominant-baseline="alphabetic">一般是一个segment包含多个section。</text></g><g transform="translate(825.766670227051 516) rotate(0 191.6750030517578 11.5)"><text x="0" y="18.400390625" font-family="Helvetica, Segoe UI Emoji" font-size="20px" fill="#1971c2" text-anchor="start" style="white-space: pre;" direction="ltr" dominant-baseline="alphabetic">主要记录各个section的信息，主要用于链接</text></g><g stroke-linecap="round" transform="translate(270 222) rotate(0 204 39)"><path d="M19.5 0 C133.05 -1.8, 246.49 -0.28, 388.5 0 C400.71 0.83, 411.17 5.5, 408 19.5 C407.88 32.39, 405.07 39.32, 408 58.5 C408.29 68.7, 397.99 77.74, 388.5 78 C254.4 75.66, 118.43 77.29, 19.5 78 C3.6 75.31, -0.32 69.33, 0 58.5 C-0.29 50.6, 0.42 44.12, 0 19.5 C-0.54 5.45, 7.81 0.28, 19.5 0" stroke="none" stroke-width="0" fill="#a5d8ff"></path><path d="M19.5 0 C93.62 -2.42, 168.28 -1.96, 388.5 0 M19.5 0 C160.11 -1.92, 300.75 -1.78, 388.5 0 M388.5 0 C402.61 0.17, 406.34 5.28, 408 19.5 M388.5 0 C401.5 0.31, 408.46 4.22, 408 19.5 M408 19.5 C407.24 29.64, 409.06 36.53, 408 58.5 M408 19.5 C407.97 28.29, 408.15 37.52, 408 58.5 M408 58.5 C407.21 72.95, 401.8 77.5, 388.5 78 M408 58.5 C410.01 73.8, 401.62 79.24, 388.5 78 M388.5 78 C292.94 75.72, 197 76.85, 19.5 78 M388.5 78 C290.44 77.7, 192.15 77.88, 19.5 78 M19.5 78 C6.97 77.96, 0.45 70.51, 0 58.5 M19.5 78 C6.44 76.26, 1.65 71.15, 0 58.5 M0 58.5 C-0.98 41.96, -1.19 29.15, 0 19.5 M0 58.5 C-0.18 50.62, 0.22 41.08, 0 19.5 M0 19.5 C-0.42 4.62, 7.22 1.03, 19.5 0 M0 19.5 C-0.38 7.55, 7.03 -1.63, 19.5 0" stroke="#1e1e1e" stroke-width="2" fill="none"></path></g><g transform="translate(435.6500015258789 249.5) rotate(0 38.349998474121094 11.5)"><text x="38.349998474121094" y="18.400390625" font-family="Helvetica, Segoe UI Emoji" font-size="20px" fill="#1e1e1e" text-anchor="middle" style="white-space: pre;" direction="ltr" dominant-baseline="alphabetic">segment</text></g><g stroke-linecap="round" transform="translate(272 300.5) rotate(0 204 39)"><path d="M19.5 0 C167.37 -1.95, 313.55 0.26, 388.5 0 C403.6 3.02, 411.55 7.3, 408 19.5 C404.79 29.38, 409.46 37.76, 408 58.5 C408.12 74.64, 401.44 76.81, 388.5 78 C246.66 79.09, 110.03 81.92, 19.5 78 C7.11 74.42, -0.88 68.25, 0 58.5 C-1.93 44.8, -3.62 36.2, 0 19.5 C0.37 9.43, 9.36 -2.31, 19.5 0" stroke="none" stroke-width="0" fill="#a5d8ff"></path><path d="M19.5 0 C148.05 0.59, 277.38 1.23, 388.5 0 M19.5 0 C149.39 -2.66, 279.37 -1.95, 388.5 0 M388.5 0 C402.97 -0.94, 409.46 6.51, 408 19.5 M388.5 0 C401.01 0.32, 406.97 4.71, 408 19.5 M408 19.5 C409.13 31.51, 407.02 44.32, 408 58.5 M408 19.5 C408.11 28.59, 408.9 38.02, 408 58.5 M408 58.5 C408.86 73.06, 402.78 76.41, 388.5 78 M408 58.5 C406.11 71.97, 400.25 76.35, 388.5 78 M388.5 78 C241.56 78.72, 94.51 78.33, 19.5 78 M388.5 78 C312.11 78.25, 235.16 78.55, 19.5 78 M19.5 78 C8.28 78.48, 0.17 69.89, 0 58.5 M19.5 78 C7 80.21, -0.81 69.34, 0 58.5 M0 58.5 C-0.01 46.08, 0.35 32.49, 0 19.5 M0 58.5 C0.09 45.61, -0.8 33.87, 0 19.5 M0 19.5 C0.31 6.22, 4.78 0.22, 19.5 0 M0 19.5 C0.16 8.04, 5.22 2.03, 19.5 0" stroke="#1e1e1e" stroke-width="2" fill="none"></path></g><g transform="translate(437.6500015258789 328) rotate(0 38.349998474121094 11.5)"><text x="38.349998474121094" y="18.400390625" font-family="Helvetica, Segoe UI Emoji" font-size="20px" fill="#1e1e1e" text-anchor="middle" style="white-space: pre;" direction="ltr" dominant-baseline="alphabetic">segment</text></g><g stroke-linecap="round" transform="translate(272 380.5) rotate(0 204 39)"><path d="M19.5 0 C167.49 1.09, 311.41 3.35, 388.5 0 C402.66 0.21, 408.12 9.64, 408 19.5 C409.79 33.08, 404.47 40.95, 408 58.5 C409.84 74.26, 402.11 74.42, 388.5 78 C288.66 74.72, 184.26 74.43, 19.5 78 C3.47 76.31, 0.37 74.43, 0 58.5 C1.03 40.92, -2.83 29.47, 0 19.5 C-2.94 8.64, 10.03 -1.74, 19.5 0" stroke="none" stroke-width="0" fill="#a5d8ff"></path><path d="M19.5 0 C166.33 2.16, 314.04 1, 388.5 0 M19.5 0 C157.21 0.21, 294.27 0.61, 388.5 0 M388.5 0 C401.35 -1.67, 409.16 6.01, 408 19.5 M388.5 0 C400.4 -0.22, 406.59 8.45, 408 19.5 M408 19.5 C409.04 28.75, 408.78 39.89, 408 58.5 M408 19.5 C407.9 33.14, 406.97 48.86, 408 58.5 M408 58.5 C409.49 71.62, 401.51 78.94, 388.5 78 M408 58.5 C407.81 71.85, 399.36 77.8, 388.5 78 M388.5 78 C273.05 78.68, 160.55 78.35, 19.5 78 M388.5 78 C275.28 78.28, 160.3 78.74, 19.5 78 M19.5 78 C5 79.69, -0.3 72.33, 0 58.5 M19.5 78 C6.57 78.56, 0.34 71.28, 0 58.5 M0 58.5 C-1.7 46.45, 0.29 34.4, 0 19.5 M0 58.5 C0.63 49.6, 0.84 42.8, 0 19.5 M0 19.5 C-0.44 7.17, 7.26 -0.52, 19.5 0 M0 19.5 C0 8.2, 7.84 1.93, 19.5 0" stroke="#1e1e1e" stroke-width="2" fill="none"></path></g><g transform="translate(437.6500015258789 408) rotate(0 38.349998474121094 11.5)"><text x="38.349998474121094" y="18.400390625" font-family="Helvetica, Segoe UI Emoji" font-size="20px" fill="#1e1e1e" text-anchor="middle" style="white-space: pre;" direction="ltr" dominant-baseline="alphabetic">segment</text></g></svg>