<?xml version="1.0" encoding="UTF-8" standalone="no"?>
<!DOCTYPE svg PUBLIC "-//W3C//DTD SVG 1.1//EN"
 "http://www.w3.org/Graphics/SVG/1.1/DTD/svg11.dtd">
<!-- Generated by graphviz version 2.38.0 (20140413.2041)
 -->
<!-- Title: v Pages: 1 -->
<svg width="622pt" height="548pt"
 viewBox="0.00 0.00 621.50 548.00" xmlns="http://www.w3.org/2000/svg" xmlns:xlink="http://www.w3.org/1999/xlink">
<g id="graph0" class="graph" transform="scale(1 1) rotate(0) translate(4 544)">
<title>v</title>
<polygon fill="white" stroke="none" points="-4,4 -4,-544 617.5,-544 617.5,4 -4,4"/>
<!-- bios -->
<g id="node1" class="node"><title>bios</title>
<polygon fill="#00b2ee" stroke="black" points="334,-540 280,-540 280,-504 334,-504 334,-540"/>
<text text-anchor="middle" x="307" y="-518.3" font-family="Times New Roman,serif" font-size="14.00">BIOS </text>
</g>
<!-- mbr -->
<g id="node2" class="node"><title>mbr</title>
<polygon fill="#00b2ee" stroke="black" points="334,-468 280,-468 280,-432 334,-432 334,-468"/>
<text text-anchor="middle" x="307" y="-446.3" font-family="Times New Roman,serif" font-size="14.00">MBR</text>
</g>
<!-- bios&#45;&gt;mbr -->
<g id="edge1" class="edge"><title>bios&#45;&gt;mbr</title>
<path fill="none" stroke="black" d="M307,-503.697C307,-495.983 307,-486.712 307,-478.112"/>
<polygon fill="black" stroke="black" points="310.5,-478.104 307,-468.104 303.5,-478.104 310.5,-478.104"/>
</g>
<!-- mbr_loader -->
<g id="node3" class="node"><title>mbr_loader</title>
<polygon fill="#00b2ee" stroke="black" points="353,-396 261,-396 261,-360 353,-360 353,-396"/>
<text text-anchor="middle" x="307" y="-374.3" font-family="Times New Roman,serif" font-size="14.00">MBR引导程序</text>
</g>
<!-- mbr&#45;&gt;mbr_loader -->
<g id="edge2" class="edge"><title>mbr&#45;&gt;mbr_loader</title>
<path fill="none" stroke="black" d="M307,-431.697C307,-423.983 307,-414.712 307,-406.112"/>
<polygon fill="black" stroke="black" points="310.5,-406.104 307,-396.104 303.5,-406.104 310.5,-406.104"/>
</g>
<!-- load_kernel -->
<g id="node4" class="node"><title>load_kernel</title>
<polygon fill="#00b2ee" stroke="black" points="338,-324 276,-324 276,-288 338,-288 338,-324"/>
<text text-anchor="middle" x="307" y="-302.3" font-family="Times New Roman,serif" font-size="14.00">加载内核</text>
</g>
<!-- mbr_loader&#45;&gt;load_kernel -->
<g id="edge3" class="edge"><title>mbr_loader&#45;&gt;load_kernel</title>
<path fill="none" stroke="black" d="M307,-359.697C307,-351.983 307,-342.712 307,-334.112"/>
<polygon fill="black" stroke="black" points="310.5,-334.104 307,-324.104 303.5,-334.104 310.5,-334.104"/>
</g>
<!-- init_kernel -->
<g id="node5" class="node"><title>init_kernel</title>
<polygon fill="#00b2ee" stroke="black" points="343.5,-252 270.5,-252 270.5,-216 343.5,-216 343.5,-252"/>
<text text-anchor="middle" x="307" y="-230.3" font-family="Times New Roman,serif" font-size="14.00">内核初始化</text>
</g>
<!-- load_kernel&#45;&gt;init_kernel -->
<g id="edge4" class="edge"><title>load_kernel&#45;&gt;init_kernel</title>
<path fill="none" stroke="black" d="M307,-287.697C307,-279.983 307,-270.712 307,-262.112"/>
<polygon fill="black" stroke="black" points="310.5,-262.104 307,-252.104 303.5,-262.104 310.5,-262.104"/>
</g>
<!-- run_sbin_init -->
<g id="node6" class="node"><title>run_sbin_init</title>
<polygon fill="#00b2ee" stroke="black" points="350,-180 264,-180 264,-144 350,-144 350,-180"/>
<text text-anchor="middle" x="307" y="-158.3" font-family="Times New Roman,serif" font-size="14.00">调用/sbin/init</text>
</g>
<!-- init_kernel&#45;&gt;run_sbin_init -->
<g id="edge5" class="edge"><title>init_kernel&#45;&gt;run_sbin_init</title>
<path fill="none" stroke="black" d="M307,-215.697C307,-207.983 307,-198.712 307,-190.112"/>
<polygon fill="black" stroke="black" points="310.5,-190.104 307,-180.104 303.5,-190.104 310.5,-190.104"/>
</g>
<!-- load_etc_inittab -->
<g id="node7" class="node"><title>load_etc_inittab</title>
<polygon fill="#00b2ee" stroke="black" points="134,-108 0,-108 0,-72 134,-72 134,-108"/>
<text text-anchor="middle" x="67" y="-86.3" font-family="Times New Roman,serif" font-size="14.00">1. 加载/etc/inittab配置</text>
</g>
<!-- run_sbin_init&#45;&gt;load_etc_inittab -->
<g id="edge6" class="edge"><title>run_sbin_init&#45;&gt;load_etc_inittab</title>
<path fill="none" stroke="black" d="M263.816,-148.405C228.083,-137.982 176.673,-122.988 135.357,-110.937"/>
<polygon fill="black" stroke="black" points="136.208,-107.54 125.628,-108.1 134.248,-114.26 136.208,-107.54"/>
</g>
<!-- run_rc_sysinit -->
<g id="node8" class="node"><title>run_rc_sysinit</title>
<polygon fill="#00b2ee" stroke="black" points="306,-108 152,-108 152,-72 306,-72 306,-108"/>
<text text-anchor="middle" x="229" y="-86.3" font-family="Times New Roman,serif" font-size="14.00">2. 运行/etc/rc.d/rc.sysinit</text>
</g>
<!-- run_sbin_init&#45;&gt;run_rc_sysinit -->
<g id="edge7" class="edge"><title>run_sbin_init&#45;&gt;run_rc_sysinit</title>
<path fill="none" stroke="black" d="M287.719,-143.697C278.085,-135.05 266.271,-124.449 255.773,-115.027"/>
<polygon fill="black" stroke="black" points="257.839,-112.179 248.059,-108.104 253.164,-117.388 257.839,-112.179"/>
</g>
<!-- run_etc_rc_d_rc -->
<g id="node9" class="node"><title>run_etc_rc_d_rc</title>
<polygon fill="#00b2ee" stroke="black" points="446,-108 324,-108 324,-72 446,-72 446,-108"/>
<text text-anchor="middle" x="385" y="-86.3" font-family="Times New Roman,serif" font-size="14.00">3. 运行 /etc/rc.d/rc </text>
</g>
<!-- run_sbin_init&#45;&gt;run_etc_rc_d_rc -->
<g id="edge8" class="edge"><title>run_sbin_init&#45;&gt;run_etc_rc_d_rc</title>
<path fill="none" stroke="black" d="M326.281,-143.697C335.915,-135.05 347.729,-124.449 358.227,-115.027"/>
<polygon fill="black" stroke="black" points="360.836,-117.388 365.941,-108.104 356.161,-112.179 360.836,-117.388"/>
</g>
<!-- run_etc_rc_d_rc_local -->
<g id="node11" class="node"><title>run_etc_rc_d_rc_local</title>
<polygon fill="#00b2ee" stroke="black" points="613.5,-108 464.5,-108 464.5,-72 613.5,-72 613.5,-108"/>
<text text-anchor="middle" x="539" y="-86.3" font-family="Times New Roman,serif" font-size="14.00">4. 运行 /etc/rc.d/rc.local</text>
</g>
<!-- run_sbin_init&#45;&gt;run_etc_rc_d_rc_local -->
<g id="edge10" class="edge"><title>run_sbin_init&#45;&gt;run_etc_rc_d_rc_local</title>
<path fill="none" stroke="black" d="M350.094,-147.998C384.523,-137.61 433.361,-122.874 472.754,-110.988"/>
<polygon fill="black" stroke="black" points="473.989,-114.271 482.551,-108.032 471.966,-107.57 473.989,-114.271"/>
</g>
<!-- run_etc_rc_x_d_rc -->
<g id="node10" class="node"><title>run_etc_rc_x_d_rc</title>
<polygon fill="#00b2ee" stroke="black" points="470,-36 300,-36 300,-0 470,-0 470,-36"/>
<text text-anchor="middle" x="385" y="-14.3" font-family="Times New Roman,serif" font-size="14.00">运行 /etc/rcX.d/目录下的脚本</text>
</g>
<!-- run_etc_rc_d_rc&#45;&gt;run_etc_rc_x_d_rc -->
<g id="edge9" class="edge"><title>run_etc_rc_d_rc&#45;&gt;run_etc_rc_x_d_rc</title>
<path fill="none" stroke="black" d="M385,-71.6966C385,-63.9827 385,-54.7125 385,-46.1124"/>
<polygon fill="black" stroke="black" points="388.5,-46.1043 385,-36.1043 381.5,-46.1044 388.5,-46.1043"/>
</g>
</g>
</svg>
